<svg viewBox="0 0 573.55 514.72" xmlns="http://www.w3.org/2000/svg"><g fill="#b79256"><path d="m353.28 0-134.54.6-17.54 40 85.6 106.34 87.75-109.94z"/><path d="m184.82 111.64-184.82-1.16c25.38 33.72 60.07 57.87 99 68.93a169.79 169.79 0 0 0 70.2 3.91l-50.86 73.68 80.31 38 37.44-127.3z"/><path d="m388.73 111.93 184.82-1.17c-25.39 33.73-60.09 57.88-99.06 68.94a170 170 0 0 1 -70.2 3.9l50.89 73.64-80.34 38-37.44-127.33z"/><path d="m303 184.11-16 18.4-16.73-18.59-51.64 276.74 69.78 54.06 67.59-56.42z"/></g></svg>