<svg viewBox="0 0 499.26 534.86" xmlns="http://www.w3.org/2000/svg"><g fill="#b79256"><path d="m246.69 534.86c-103.32-104.38-146.42-147-149.63-148.92a10.33 10.33 0 0 1 -5.38-8.8 251.18 251.18 0 0 0 -22.27-123.83c-27.5-57.58-74.24-91.49-69-97.73s50.73 24.94 57.43 29.57a260.89 260.89 0 0 1 84.82 79.31c20.24 32.84 22.45 58.64 27.43 57.85 7.13-1.17 8-56.61-.42-111.83a750.29 750.29 0 0 0 -72.22-205.92 665.34 665.34 0 0 1 98.37 153 788.63 788.63 0 0 1 62.34 147.21 636.56 636.56 0 0 1 18 147.2 100.6 100.6 0 0 1 -22.51 77.14 59.59 59.59 0 0 1 -6.96 5.75z"/><path d="m269.63 213 36.45 102.85a227.94 227.94 0 0 0 31.28-103.71 480.3 480.3 0 0 1 17.14-89.56 1061.35 1061.35 0 0 1 51.41-122.58 504 504 0 0 0 -84 115.29 1106.59 1106.59 0 0 0 -52.28 97.71z"/><path d="m329.2 459 80.13-79.27a284.39 284.39 0 0 1 15-98.57c26.48-76.85 79.92-118.64 74.57-124.27s-56.79 24-97.72 73.28a344 344 0 0 0 -73.3 210.83z"/></g></svg>