<?xml version="1.0" standalone="no"?>
<!DOCTYPE svg PUBLIC "-//W3C//DTD SVG 20010904//EN"
 "http://www.w3.org/TR/2001/REC-SVG-20010904/DTD/svg10.dtd">
<svg version="1.0" xmlns="http://www.w3.org/2000/svg"
 width="299.000000pt" height="822.000000pt" viewBox="0 0 299.000000 822.000000"
 preserveAspectRatio="xMidYMid meet">

<g transform="translate(0.000000,822.000000) scale(0.100000,-0.100000)"
fill="#000000" stroke="none">
<path d="M1063 7383 c-259 -450 -484 -845 -501 -878 -40 -81 -78 -201 -98
-310 -12 -69 -15 -126 -11 -245 5 -174 30 -290 90 -429 31 -73 986 -1740 997
-1741 11 0 786 1355 809 1413 17 45 25 90 29 163 6 141 -13 221 -85 352 -31
56 -59 102 -62 102 -3 -1 -159 -266 -345 -590 -187 -325 -342 -590 -345 -590
-9 0 -574 982 -601 1042 -63 144 -82 357 -45 503 28 112 66 184 411 782 181
313 339 597 352 633 45 120 41 306 -9 420 -25 57 -101 190 -108 190 -3 0 -218
-368 -478 -817z"/>
<path d="M1488 6922 c-274 -475 -402 -707 -416 -752 -41 -135 -37 -270 12
-392 25 -60 446 -798 457 -798 3 0 158 265 345 590 186 324 341 589 344 590 8
0 236 -398 260 -455 76 -177 80 -413 11 -595 -11 -30 -61 -127 -111 -215 -50
-88 -100 -191 -112 -230 -29 -90 -30 -242 -4 -330 16 -55 85 -194 119 -239 12
-17 32 13 224 345 232 402 259 452 296 554 48 134 62 227 61 405 0 144 -3 178
-26 270 -15 58 -42 141 -60 185 -35 82 -649 1155 -658 1150 -3 -2 -158 -268
-345 -593 -187 -324 -343 -588 -346 -586 -3 2 -27 40 -53 84 l-47 81 273 472
c157 271 282 500 295 537 41 121 40 260 -4 388 -12 36 -110 222 -117 222 0 0
-179 -309 -398 -688z"/>
<path d="M107 5727 c-70 -124 -89 -184 -94 -307 -6 -117 9 -196 54 -284 37
-73 1454 -2529 1467 -2543 8 -8 90 126 316 518 168 291 316 559 330 596 21 58
24 86 25 188 0 91 -5 133 -19 175 -20 60 -115 240 -126 240 -4 0 -122 -198
-261 -440 -140 -242 -256 -440 -259 -440 -3 1 -313 536 -690 1190 -377 654
-687 1189 -690 1190 -3 0 -26 -38 -53 -83z"/>
<path d="M1402 1755 c-165 -37 -266 -132 -307 -290 -12 -49 -15 -143 -15 -566
0 -298 4 -528 10 -559 22 -114 88 -213 176 -265 58 -34 182 -65 258 -65 116 1
230 36 281 87 12 12 15 47 15 181 l0 167 -36 -43 c-51 -61 -104 -86 -184 -86
-91 0 -137 24 -170 89 l-25 50 -3 388 c-4 396 3 508 34 555 38 57 129 83 222
62 47 -10 65 -21 109 -67 l53 -54 0 165 0 164 -35 31 c-19 16 -58 37 -87 46
-75 23 -219 28 -296 10z"/>
<path d="M2260 1757 c-197 -46 -300 -195 -300 -436 0 -144 45 -267 138 -378
27 -32 100 -112 162 -178 118 -126 155 -184 166 -267 7 -53 -9 -112 -40 -147
-31 -35 -78 -51 -148 -51 -81 0 -151 32 -213 96 l-45 48 0 -167 0 -166 33 -25
c17 -13 61 -34 97 -47 89 -30 278 -33 360 -5 208 72 310 263 280 527 -19 163
-63 238 -283 476 -71 76 -140 157 -153 179 -53 91 -35 212 38 250 79 42 222 5
288 -74 l30 -37 0 161 0 161 -39 27 c-21 15 -61 34 -88 42 -68 21 -216 26
-283 11z"/>
<path d="M230 891 l0 -861 370 0 370 0 0 140 0 140 -210 0 -209 0 -3 603 -3
602 -28 57 c-46 94 -140 163 -238 175 l-49 6 0 -862z"/>
</g>
</svg>
