<?xml version="1.0" standalone="no"?>
<!DOCTYPE svg PUBLIC "-//W3C//DTD SVG 20010904//EN"
 "http://www.w3.org/TR/2001/REC-SVG-20010904/DTD/svg10.dtd">
<svg version="1.0" xmlns="http://www.w3.org/2000/svg"
 width="751.000000pt" height="532.000000pt" viewBox="0 0 751.000000 532.000000"
 preserveAspectRatio="xMidYMid meet">

<g transform="translate(0.000000,532.000000) scale(0.100000,-0.100000)"
fill="#000000" stroke="none">
<path d="M3750 5307 c0 -4 -90 -388 -201 -854 -110 -467 -206 -872 -213 -902
l-12 -54 -259 321 c-142 177 -260 320 -261 319 -2 -1 29 -127 68 -279 l71
-277 -65 -69 c-71 -75 -131 -157 -126 -171 2 -5 35 -34 74 -65 l72 -56 48 65
c26 36 51 62 54 58 10 -11 92 -332 88 -343 -2 -4 -131 50 -286 122 -156 71
-285 128 -287 126 -2 -2 19 -39 47 -82 l51 -79 -22 -91 c-32 -133 -41 -200
-41 -308 0 -246 66 -468 200 -670 75 -114 179 -226 285 -306 144 -108 373
-203 550 -227 l51 -6 57 -90 c32 -50 61 -88 66 -85 5 3 32 44 62 90 l53 85 50
6 c178 24 407 118 551 227 307 232 485 590 485 976 0 108 -9 175 -41 308 l-22
91 51 79 c28 43 49 80 47 82 -2 2 -131 -55 -287 -126 -155 -72 -284 -126 -286
-122 -4 11 78 332 88 343 3 4 28 -22 54 -58 l48 -65 72 56 c39 31 72 60 74 65
5 14 -55 96 -126 171 l-65 69 71 277 c39 152 70 278 68 279 -1 1 -119 -142
-261 -319 l-259 -321 -12 54 c-81 347 -416 1754 -419 1758 -3 2 -5 1 -5 -2z
m181 -1954 l162 -692 140 70 139 70 -23 -38 c-119 -193 -591 -928 -595 -926
-9 3 -604 946 -600 950 2 2 62 -25 133 -61 l130 -65 158 672 c87 370 163 692
168 717 9 41 11 43 18 20 4 -14 81 -336 170 -717z m-763 -1138 c176 -275 319
-501 318 -503 -6 -5 -117 38 -191 75 -246 124 -428 348 -511 628 -28 97 -43
297 -29 391 l7 47 43 -69 c24 -38 188 -294 363 -569z m1591 475 c1 -279 -84
-497 -273 -697 -99 -105 -224 -194 -339 -242 -146 -60 -165 -103 235 527 257
403 365 565 370 553 4 -9 7 -72 7 -141z"/>
<path d="M3680 2884 c-40 -115 -73 -216 -72 -224 1 -16 139 -410 146 -417 2
-2 11 15 19 39 8 24 42 120 75 213 l59 170 -73 205 c-40 113 -75 209 -76 214
-2 5 -37 -85 -78 -200z"/>
<path d="M573 1114 c-340 -46 -528 -197 -564 -449 -27 -200 27 -378 149 -485
162 -143 530 -209 951 -169 384 36 588 176 626 432 l7 47 -265 0 -266 0 -6
-22 c-12 -38 -56 -77 -109 -95 -75 -26 -358 -26 -434 0 -101 36 -142 91 -142
194 0 108 46 165 160 196 120 33 335 29 430 -9 42 -17 100 -75 100 -99 0 -13
39 -15 266 -15 l266 0 -7 48 c-16 108 -66 206 -137 266 -97 84 -264 143 -461
165 -131 15 -439 12 -564 -5z"/>
<path d="M1810 565 l0 -566 708 3 c700 3 708 3 772 25 163 55 242 156 242 308
0 101 -57 197 -162 270 l-39 27 40 50 c54 69 74 141 60 219 -18 104 -67 160
-177 202 -59 22 -65 22 -751 25 l-693 3 0 -566z m1065 291 c65 -27 57 -106
-12 -125 -22 -6 -143 -11 -285 -11 l-248 0 0 75 0 75 255 0 c199 0 263 -3 290
-14z m105 -431 c30 -15 47 -53 37 -79 -3 -8 -18 -23 -33 -33 -25 -16 -59 -18
-341 -21 l-313 -3 0 75 0 76 310 0 c259 0 316 -3 340 -15z"/>
<path d="M3610 565 l0 -565 712 0 c454 0 709 3 702 10 -5 5 -117 86 -249 180
l-240 170 -202 0 -203 0 0 385 0 385 -260 0 -260 0 0 -565z"/>
<path d="M4862 1118 c-197 -24 -370 -91 -466 -179 -53 -48 -116 -151 -116
-189 0 -10 62 -61 154 -128 l154 -112 96 0 96 0 0 54 c0 138 77 200 269 215
119 10 260 -3 318 -29 89 -39 123 -90 123 -181 0 -69 -24 -116 -78 -150 -68
-43 -127 -52 -386 -58 l-239 -6 236 -179 237 -178 107 11 c282 29 471 117 563
261 53 83 72 159 74 290 0 93 -4 129 -21 185 -67 214 -255 333 -588 374 -106
13 -428 12 -533 -1z"/>
<path d="M6080 565 l0 -565 712 0 c425 0 708 4 703 9 -6 5 -118 86 -250 180
l-240 171 -202 0 -203 0 0 385 0 385 -260 0 -260 0 0 -565z"/>
</g>
</svg>
