<?xml version="1.0" standalone="no"?>
<!DOCTYPE svg PUBLIC "-//W3C//DTD SVG 20010904//EN"
 "http://www.w3.org/TR/2001/REC-SVG-20010904/DTD/svg10.dtd">
<svg version="1.0" xmlns="http://www.w3.org/2000/svg"
 width="511.000000pt" height="519.000000pt" viewBox="0 0 511.000000 519.000000"
 preserveAspectRatio="xMidYMid meet">

<g transform="translate(0.000000,519.000000) scale(0.100000,-0.100000)"
fill="#000000" stroke="none">
<path d="M1540 5135 c-305 -24 -574 -45 -597 -48 -31 -3 -150 -66 -470 -247
-407 -230 -473 -273 -473 -305 0 -16 2557 -4449 2597 -4502 16 -22 33 -33 48
-33 28 0 10 -21 510 593 187 229 344 417 350 417 5 -1 46 -50 90 -110 77 -105
106 -130 139 -117 11 4 629 755 734 891 21 27 22 38 22 196 0 212 10 200 -166
200 -71 0 -134 4 -140 8 -18 12 -114 144 -114 156 0 7 48 39 107 73 79 45 111
59 120 51 8 -6 13 -35 13 -74 0 -34 5 -66 11 -69 6 -4 78 38 161 93 l151 100
238 293 c138 169 239 302 239 314 0 24 -114 224 -138 243 -11 8 -63 12 -174
12 l-158 0 -85 -102 c-109 -132 -109 -138 -18 -230 l68 -68 -34 -98 c-19 -53
-38 -103 -44 -109 -7 -10 -63 -13 -216 -13 l-206 0 -242 -136 c-169 -96 -244
-144 -252 -161 -25 -54 -16 -71 155 -303 92 -124 176 -235 187 -247 17 -19 31
-23 79 -23 47 0 58 -3 58 -16 0 -28 -141 -194 -164 -194 -12 0 -290 110 -620
244 -329 135 -605 242 -612 239 -11 -4 -14 -103 -16 -557 -3 -477 -5 -551 -18
-551 -14 0 -580 966 -580 991 0 19 726 1089 741 1092 9 2 44 -39 89 -103 40
-58 79 -105 86 -103 6 2 147 77 313 168 218 120 301 170 301 182 0 17 -22 18
-337 18 -186 0 -343 4 -349 8 -7 4 -105 133 -218 287 l-206 279 0 273 c0 163
4 274 10 278 5 3 191 -53 412 -125 222 -71 411 -130 421 -130 28 0 20 40 -45
203 -7 19 -56 59 -153 127 -78 55 -148 106 -154 113 -8 11 13 51 99 183 60 93
110 176 110 184 0 12 -116 52 -473 163 -451 140 -476 147 -552 146 -44 -1
-330 -21 -635 -44z m-40 -490 c36 -9 107 -29 158 -46 79 -27 93 -34 99 -57 8
-33 -26 -373 -39 -389 -8 -10 -25 1 -72 43 -74 67 -180 121 -267 136 -166 28
-299 -82 -299 -247 0 -78 14 -115 76 -202 38 -54 44 -66 33 -79 -15 -18 -39
-15 -122 16 -70 26 -141 94 -176 170 -23 49 -26 67 -25 160 2 163 48 275 155
375 115 108 315 158 479 120z m65 -1088 c3 -6 -20 -74 -50 -151 -55 -136 -56
-139 -39 -165 10 -14 87 -113 172 -219 111 -138 160 -192 173 -190 19 3 289
254 289 268 0 5 -34 54 -75 109 -76 102 -83 115 -66 125 9 6 383 -111 409
-127 9 -6 9 -13 0 -30 -20 -39 -510 -761 -529 -782 -17 -17 -21 -18 -33 -5
-28 29 -555 952 -550 963 7 17 267 217 282 217 7 0 15 -6 17 -13z"/>
<path d="M3330 4692 l0 -129 115 -153 115 -153 0 -133 c0 -117 2 -134 18 -143
9 -5 151 -52 315 -105 334 -107 374 -114 426 -70 l31 26 0 123 c0 102 -3 126
-17 144 -29 35 -967 721 -985 721 -16 0 -18 -13 -18 -128z"/>
<path d="M2997 3773 c-15 -14 -4 -38 52 -111 96 -126 71 -117 317 -120 208 -3
214 -3 214 17 0 25 -178 192 -223 208 -34 13 -348 18 -360 6z"/>
</g>
</svg>
