<?xml version="1.0" standalone="no"?>
<!DOCTYPE svg PUBLIC "-//W3C//DTD SVG 20010904//EN"
 "http://www.w3.org/TR/2001/REC-SVG-20010904/DTD/svg10.dtd">
<svg version="1.0" xmlns="http://www.w3.org/2000/svg"
 width="1307.000000pt" height="464.000000pt" viewBox="0 0 1307.000000 464.000000"
 preserveAspectRatio="xMidYMid meet">

<g transform="translate(0.000000,464.000000) scale(0.100000,-0.100000)"
fill="#000000" stroke="none">
<path d="M2415 2805 c-1210 -998 -2225 -1840 -2257 -1870 -211 -209 -209 -555
7 -770 222 -222 569 -218 785 9 27 28 846 1019 1821 2201 974 1183 1790 2171
1811 2198 22 26 38 47 36 47 -1 -1 -993 -817 -2203 -1815z"/>
<path d="M1955 4401 c-707 -111 -1293 -539 -1613 -1177 -208 -416 -273 -912
-179 -1379 12 -61 27 -109 32 -107 6 2 117 91 247 198 l237 195 -6 87 c-10
163 22 380 84 562 197 583 698 995 1308 1076 156 21 379 14 520 -17 55 -12
108 -22 117 -23 9 0 126 89 259 198 l242 200 -63 28 c-143 64 -324 118 -515
154 -142 26 -516 29 -670 5z"/>
<path d="M8899 3615 c-365 -57 -648 -228 -869 -525 -103 -140 -171 -295 -212
-483 -29 -136 -32 -426 -5 -559 65 -324 229 -588 485 -781 159 -119 318 -190
522 -234 119 -25 437 -25 565 0 250 49 434 144 622 321 82 77 194 206 192 222
0 5 -116 91 -257 191 l-257 181 -90 -87 c-161 -158 -253 -201 -440 -209 -145
-5 -209 6 -308 55 -98 49 -198 150 -254 258 -64 125 -77 185 -77 360 0 135 3
158 27 230 70 212 227 371 412 420 69 18 235 20 303 4 26 -6 88 -31 139 -55
74 -35 109 -61 182 -130 65 -62 95 -84 104 -77 341 263 487 378 487 384 0 15
-86 117 -159 188 -189 183 -432 297 -706 330 -118 14 -298 12 -406 -4z"/>
<path d="M11487 3615 c-320 -52 -566 -179 -778 -403 -249 -262 -354 -530 -353
-902 1 -195 23 -317 85 -476 133 -341 435 -630 779 -747 163 -56 268 -71 485
-71 169 0 216 4 302 22 115 25 251 71 334 112 187 95 394 279 512 456 153 230
212 433 210 729 -2 370 -132 670 -402 927 -189 180 -387 284 -643 339 -125 27
-407 34 -531 14z m430 -647 c199 -71 359 -249 415 -462 23 -88 24 -273 2 -366
-8 -36 -33 -103 -56 -150 -33 -69 -57 -101 -127 -171 -129 -129 -251 -178
-442 -179 -278 0 -508 167 -602 439 -25 72 -31 106 -35 211 -4 106 -1 139 17
210 64 253 228 427 460 485 91 23 279 15 368 -17z"/>
<path d="M5800 2320 l0 -1260 960 0 960 0 0 305 0 305 -610 0 -610 0 0 955 0
955 -350 0 -350 0 0 -1260z"/>
<path d="M4011 2953 l-194 -236 24 -116 c21 -102 24 -142 24 -336 -1 -242 -12
-320 -75 -507 -133 -397 -447 -753 -823 -932 -214 -102 -400 -145 -662 -155
l-179 -6 -194 -234 c-106 -129 -189 -237 -185 -241 9 -8 136 -34 258 -52 123
-18 438 -15 575 6 477 73 896 289 1231 632 344 354 552 803 600 1297 23 236
-3 535 -68 767 -28 103 -122 350 -132 349 -3 0 -93 -106 -200 -236z"/>
</g>
</svg>
