<?xml version="1.0" standalone="no"?>
<!DOCTYPE svg PUBLIC "-//W3C//DTD SVG 20010904//EN"
 "http://www.w3.org/TR/2001/REC-SVG-20010904/DTD/svg10.dtd">
<svg version="1.0" xmlns="http://www.w3.org/2000/svg"
 width="477.000000pt" height="921.000000pt" viewBox="0 0 477.000000 921.000000"
 preserveAspectRatio="xMidYMid meet">

<g transform="translate(0.000000,921.000000) scale(0.100000,-0.100000)"
fill="#000000" stroke="none">
<path d="M4580 9181 c-18 -35 -67 -305 -199 -1098 -181 -1088 -239 -1404 -307
-1676 -35 -142 -60 -208 -81 -215 -35 -11 -96 166 -189 548 -35 146 -85 351
-110 455 -68 281 -117 425 -144 425 -31 0 -75 -129 -125 -370 -19 -93 -82
-452 -139 -797 -138 -827 -183 -1053 -237 -1197 -55 -149 -85 -94 -209 389
-70 274 -113 409 -140 445 -18 24 -19 24 -39 6 -69 -63 -190 -669 -336 -1685
-25 -172 -45 -315 -45 -317 0 -2 69 -4 153 -4 635 0 1319 -173 1742 -441 l65
-41 0 -598 c0 -647 -1 -630 53 -616 32 8 137 105 193 179 26 34 64 98 85 142
73 156 69 53 69 1812 0 1697 -16 4600 -26 4646 -7 32 -19 35 -34 8z"/>
<path d="M34 8058 c-15 -22 -22 -975 -23 -3124 -1 -2277 -7 -2078 71 -2224
181 -340 644 -605 1305 -749 482 -104 995 -125 1503 -60 240 30 491 80 519
102 35 29 32 50 -58 364 -232 807 -371 1194 -437 1220 -44 17 -95 -94 -280
-607 -75 -210 -137 -348 -161 -357 -74 -29 -190 418 -428 1647 -189 977 -287
1469 -341 1715 -91 407 -153 600 -191 593 -55 -10 -124 -274 -324 -1247 -197
-960 -275 -1259 -332 -1269 -59 -11 -171 452 -348 1443 -28 154 -117 678 -199
1165 -227 1348 -245 1437 -276 1388z"/>
<path d="M3700 1324 c-234 -30 -407 -101 -520 -214 -181 -181 -232 -503 -117
-740 65 -135 219 -256 392 -310 166 -51 486 -66 704 -34 315 46 540 205 596
419 27 104 50 95 -239 95 l-254 0 -6 -23 c-8 -32 -68 -93 -116 -117 -63 -32
-157 -50 -265 -50 -287 0 -436 119 -423 340 8 132 74 220 205 271 45 17 86 23
181 27 194 7 308 -24 382 -104 22 -24 40 -50 40 -59 0 -13 33 -15 255 -15
l255 0 0 24 c0 13 -9 52 -19 85 -61 195 -243 327 -531 386 -74 15 -443 28
-520 19z"/>
<path d="M1523 943 c4 -203 7 -491 7 -640 l0 -273 705 0 705 0 0 155 0 155
-480 0 -480 0 0 95 0 95 415 0 415 0 0 150 0 150 -415 0 -416 0 3 88 3 87 473
3 472 2 0 150 0 150 -707 0 -706 0 6 -367z"/>
<path d="M3 1173 c4 -71 7 -356 7 -635 l0 -508 680 0 680 0 0 185 0 185 -450
0 -450 0 0 298 c0 165 -3 367 -7 450 l-6 152 -230 0 -230 0 6 -127z"/>
</g>
</svg>
