<?xml version="1.0" standalone="no"?>
<!DOCTYPE svg PUBLIC "-//W3C//DTD SVG 20010904//EN"
 "http://www.w3.org/TR/2001/REC-SVG-20010904/DTD/svg10.dtd">
<svg version="1.0" xmlns="http://www.w3.org/2000/svg"
 width="220.000000pt" height="220.000000pt" viewBox="0 0 220.000000 220.000000"
 preserveAspectRatio="xMidYMid meet">

<g transform="translate(0.000000,220.000000) scale(0.100000,-0.100000)"
fill="#000000" stroke="none">
<path d="M376 2153 c32 -69 60 -159 86 -279 12 -57 25 -104 28 -104 3 0 19 24
37 54 l32 53 -24 94 c-13 52 -27 102 -30 112 -7 16 26 17 595 17 569 0 602 -1
595 -17 -4 -10 -18 -61 -32 -114 l-25 -96 35 -53 c23 -34 38 -48 41 -39 2 8
16 66 31 129 22 94 55 193 92 278 4 9 -148 12 -739 12 l-745 0 23 -47z"/>
<path d="M855 1710 l0 -131 79 3 c44 2 81 8 83 13 2 6 -18 9 -53 7 l-55 -4 3
121 3 121 -30 0 -30 0 0 -130z"/>
<path d="M1068 1828 c18 -18 16 -298 -3 -343 -13 -33 -13 -35 3 -26 10 5 26
19 37 31 18 20 21 40 25 186 l5 164 -39 0 c-31 0 -37 -3 -28 -12z"/>
<path d="M1221 1819 c6 -13 9 -62 7 -130 l-3 -109 76 0 c52 0 78 4 82 13 3 9
-9 11 -48 9 -48 -3 -53 -2 -58 20 -11 37 -8 178 3 199 10 17 7 19 -30 19 -38
0 -40 -1 -29 -21z"/>
<path d="M546 1758 c-8 -13 -28 -52 -44 -88 -118 -261 -37 -520 227 -730 l74
-59 24 37 c40 60 95 112 151 144 l53 30 -3 87 c-3 85 -3 86 -28 83 -41 -6
-118 -53 -156 -94 -44 -49 -55 -46 -131 35 -110 118 -156 259 -151 457 2 66 2
120 1 120 -2 0 -9 -10 -17 -22z"/>
<path d="M1638 1676 c5 -132 -16 -244 -63 -341 -36 -76 -113 -170 -159 -194
-25 -14 -28 -13 -60 25 -34 40 -109 86 -158 98 l-28 6 0 -90 0 -90 38 -19 c54
-28 119 -87 156 -142 l33 -49 64 53 c100 83 194 193 233 271 81 165 72 348
-26 524 -17 28 -31 52 -31 52 -1 0 0 -47 1 -104z"/>
<path d="M510 1060 c-1 -92 -61 -258 -111 -306 -38 -36 -37 -68 2 -127 86
-130 296 -320 685 -619 13 -9 114 64 314 227 324 264 477 452 413 504 -52 42
-107 169 -119 275 -4 31 -10 56 -15 56 -4 0 -22 -19 -40 -42 -23 -28 -33 -50
-30 -67 6 -49 51 -170 82 -221 28 -46 30 -54 19 -76 -50 -92 -593 -560 -624
-536 -293 226 -484 394 -567 498 l-50 64 25 33 c44 57 96 196 95 252 0 11 -18
40 -39 65 -37 42 -40 43 -40 20z"/>
<path d="M1069 1002 c-108 -101 -147 -142 -161 -172 l-17 -34 68 -72 c42 -44
82 -98 104 -143 l36 -71 41 79 c27 52 63 101 106 143 l64 64 -33 54 c-17 30
-57 74 -87 97 -30 24 -64 51 -75 61 -19 17 -21 17 -46 -6z"/>
<path d="M736 665 c-3 -8 -15 -15 -27 -15 -21 0 -21 -1 -4 -20 9 -10 15 -26
12 -33 -4 -11 4 -14 34 -14 32 0 39 3 34 15 -3 8 2 23 11 33 16 18 16 19 -5
19 -12 0 -24 7 -27 15 -4 8 -10 15 -14 15 -4 0 -10 -7 -14 -15z"/>
<path d="M1436 665 c-3 -8 -15 -15 -27 -15 -21 0 -21 -1 -4 -20 9 -10 15 -26
12 -33 -4 -11 4 -14 34 -14 32 0 39 3 34 15 -3 8 2 23 11 33 16 18 16 19 -5
19 -12 0 -24 7 -27 15 -4 8 -10 15 -14 15 -4 0 -10 -7 -14 -15z"/>
<path d="M906 522 c-5 -14 -15 -22 -29 -22 -16 0 -18 -3 -9 -12 7 -7 12 -21
12 -33 0 -17 6 -21 35 -21 27 0 35 4 35 17 0 10 5 21 10 24 15 9 12 25 -4 25
-7 0 -20 10 -28 22 l-15 23 -7 -23z"/>
<path d="M1271 522 c-6 -12 -18 -22 -26 -22 -17 0 -20 -16 -5 -25 6 -3 10 -14
10 -24 0 -13 8 -17 35 -17 29 0 35 4 35 21 0 12 5 26 12 33 9 9 7 12 -8 12
-12 0 -25 10 -31 22 l-10 23 -12 -23z"/>
<path d="M1090 390 c0 -5 -11 -12 -25 -16 -24 -6 -25 -8 -10 -24 8 -9 13 -23
10 -31 -4 -11 4 -14 35 -14 32 0 40 3 38 16 -2 9 3 23 10 31 11 13 9 17 -13
22 -14 4 -25 11 -25 16 0 6 -4 10 -10 10 -5 0 -10 -4 -10 -10z"/>
</g>
</svg>
