<?xml version="1.0" standalone="no"?>
<!DOCTYPE svg PUBLIC "-//W3C//DTD SVG 20010904//EN"
 "http://www.w3.org/TR/2001/REC-SVG-20010904/DTD/svg10.dtd">
<svg version="1.0" xmlns="http://www.w3.org/2000/svg"
 width="348.000000pt" height="228.000000pt" viewBox="0 0 348.000000 228.000000"
 preserveAspectRatio="xMidYMid meet">

<g transform="translate(0.000000,228.000000) scale(0.100000,-0.100000)"
fill="#000000" stroke="none">
<path d="M2668 2206 l-3 -75 -84 35 c-46 19 -85 33 -87 31 -2 -2 -124 -279
-271 -617 l-268 -612 -237 -71 c-131 -39 -240 -68 -243 -65 -3 2 115 278 261
613 146 334 261 611 257 616 -17 16 -327 139 -334 132 -4 -5 -155 -346 -335
-759 l-327 -751 -240 -72 c-132 -39 -242 -69 -244 -67 -2 2 143 338 321 747
178 409 326 750 328 757 2 9 -54 37 -166 83 -92 39 -169 69 -171 67 -5 -5
-815 -1865 -815 -1870 0 -3 36 -20 80 -38 43 -17 83 -37 89 -43 5 -7 19 -46
31 -87 12 -41 24 -77 25 -78 2 -2 128 33 280 78 152 45 278 80 281 78 2 -3 -4
-23 -13 -46 -9 -23 -14 -44 -12 -45 21 -17 334 -136 339 -130 4 4 43 89 85
188 l78 180 240 72 c133 40 243 70 245 69 2 -2 -33 -87 -77 -188 -44 -100 -77
-186 -73 -190 11 -10 332 -141 336 -137 2 2 65 146 140 319 75 173 141 321
145 329 6 9 414 141 439 141 1 0 2 -180 2 -400 l0 -400 190 0 190 0 0 458 0
457 203 59 c111 33 206 62 210 66 5 4 -16 84 -45 177 l-54 170 -144 -43 c-80
-24 -151 -44 -157 -44 -10 0 -13 104 -13 490 l0 490 -190 0 -189 0 -3 -74z
m-2 -1023 c-7 -8 -230 -72 -234 -68 -2 2 49 126 114 276 l119 272 3 -238 c1
-131 0 -240 -2 -242z"/>
</g>
</svg>
