<svg xmlns="http://www.w3.org/2000/svg" width="211.84" height="261.575" viewBox="0 0 211.84 261.575">
  <g id="그룹_32" data-name="그룹 32" transform="translate(3309.355 -3100.12)">
    <path id="패스_28" data-name="패스 28" d="M-3197.023,3105.048h-12.532a.894.894,0,0,0-.638.268l-9.265,9.434a.9.9,0,0,0-.257.636l.026,2.417a.9.9,0,0,0,.479.783l1.4.735a.892.892,0,0,1,.364.354l5.355,9.534a.9.9,0,0,0,.127.174l.779.829a.9.9,0,0,1,.242.613v8.042a.9.9,0,0,1-.2.568l-4.289,5.22a.9.9,0,0,1-1.523-.237l-3.231-8.111a.9.9,0,0,0-1.542-.212l-8.779,11.484a.9.9,0,0,0-.184.521l-.077,3.01a.9.9,0,0,1-1.565.57l-14.3-16.168a.9.9,0,0,0-1.565.588l-.078,13.588a.894.894,0,0,0,.487.8l.975.5a.894.894,0,0,1,.475.944l-.517,3.107a.9.9,0,0,1-1.5.5l-3.928-3.79a.9.9,0,0,0-1.516.682l.282,6.588a.889.889,0,0,0,.022.163l.7,3.03a.9.9,0,0,1-1.007,1.086c-1.728-.266-4.6-1.03-5.808-3.244-1.844-3.385.455-9.726,7.195-13.286a.9.9,0,0,0,.487-.774l1.041-42.858a.9.9,0,0,0-1.682-.448l-14.265,26.335a.889.889,0,0,1-.157.209l-9.382,9.3a.9.9,0,0,1-1.443-.261l-11.536-25.067a.9.9,0,0,0-1.708.371l-.083,27.539a.87.87,0,0,0,.035.252l3.072,10.57a.891.891,0,0,1-.168.815q-.888,1.081-1.749,2.209c-8.03,10.542-17.493,28.665-17.389,58.344a.9.9,0,0,0,.466.784l9.494,5.2a.9.9,0,0,1,.465.8l-.076,4.237a.894.894,0,0,0,.485.81q1.318.682,2.649,1.462a60.587,60.587,0,0,1,18.946,17.8.9.9,0,0,1-1.038,1.357l-14.889-5.436a.9.9,0,0,0-.945.213l-10.42,10.591a.893.893,0,0,0,.17,1.39q2.04,1.238,4.08,2.661c15.347,10.732,24.105,25.4,29.185,37.445a.89.89,0,0,0,.547.5l5.468,1.774a.9.9,0,0,1,.439,1.389l-4.142,5.51a.894.894,0,0,0,.095,1.182l33.759,32.521a.9.9,0,0,0,1.513-.721l-1.368-15.917-.981-12.757a.9.9,0,0,1,1.463-.758l7.787,6.452a.9.9,0,0,1,.2,1.147l-4.694,7.865a.894.894,0,0,0-.091.711,77.35,77.35,0,0,0,2.749,7.77,82.205,82.205,0,0,0,21.817,30.04.893.893,0,0,0,1.21-.027q1.57-1.518,3.123-3.147a112,112,0,0,0,22.256-34.576.9.9,0,0,0-.078-.83l-4.634-7.138a.9.9,0,0,1,.121-1.124l7.042-6.968a.9.9,0,0,1,1.524.622l.156,9.7a.887.887,0,0,1-.006.117l-2.235,19.438a.9.9,0,0,0,1.508.749l34.185-32.716a.9.9,0,0,0,.066-1.223l-4.695-5.579a.9.9,0,0,1,.391-1.422l7.222-2.5a.891.891,0,0,0,.55-.549,72.048,72.048,0,0,1,3.5-8.309c7.756-15.59,19.679-25.329,28.494-30.983a.893.893,0,0,0,.144-1.387l-10.509-10.38a.9.9,0,0,0-.947-.2l-14.9,5.671a.9.9,0,0,1-1.089-1.292q.9-1.492,1.947-3.012a58.662,58.662,0,0,1,19.529-17.549.925.925,0,0,0,.093-.061h0a.9.9,0,0,0,.357-.672l.149-3.029a.9.9,0,0,1,.374-.685l9.47-6.748a.893.893,0,0,0,.377-.718,104.214,104.214,0,0,0-.959-15.361,109.064,109.064,0,0,0-17.334-45.244.886.886,0,0,1-.134-.642l2.211-12.807a.852.852,0,0,0,.012-.173l-.557-24.413a.9.9,0,0,0-1.735-.287l-8.964,24.571a.9.9,0,0,1-.252.367l-.721.631a.9.9,0,0,1-1.222-.04l-11.223-11.223a.9.9,0,0,1-.156-.211l-13.558-25.348a.9.9,0,0,0-1.684.43l.253,27.8v7.335l.366,8.154a.9.9,0,0,0,.234.565l4.919,5.365a.884.884,0,0,1,.161.248l1.83,4.208c.01.024.02.049.029.074l.6,1.792a.9.9,0,0,1,.044.352l-.134,1.739a.894.894,0,0,1-.562.763l-3.877,1.538a.9.9,0,0,1-1.222-.763l-.788-10.25a.9.9,0,0,0-1.573-.513l-3.151,3.693a.9.9,0,0,1-1.575-.567l-.049-3.215a.894.894,0,0,1,.55-.84l1.161-.484a.894.894,0,0,0,.551-.848l-.308-12.323a.9.9,0,0,0-1.57-.564l-14.356,16.544a.9.9,0,0,1-1.565-.481l-.73-6.158a.9.9,0,0,0-.2-.468l-8.144-9.772a.9.9,0,0,0-1.522.251l-3.472,9.006a.9.9,0,0,1-1.527.246l-4.682-5.709a.9.9,0,0,1-.2-.568v-8.5a.894.894,0,0,1,.073-.353l.766-1.786a.9.9,0,0,1,.043-.088l5.947-10.509a.894.894,0,0,1,.512-.414l1.341-.419a.9.9,0,0,0,.628-.826l.062-1.953a.894.894,0,0,0-.291-.689l-9.181-8.384A.9.9,0,0,0-3197.023,3105.048Z" transform="translate(0)" fill="none" stroke="#bb9557" stroke-miterlimit="10" stroke-width="4"/>
    <path id="패스_29" data-name="패스 29" d="M-3055.572,3327.549c-.119-5.156-1.189-15.539-8.773-23.34a27.779,27.779,0,0,0-3.248-2.856q-.062.746-.125,1.49l.062,2.793.186,4.1-.248,5.028-.807,2.111-.559,2.483-1.676,4.159-2.048,4.345-1.924,1.179-.373-3.539-2.048-1.986-1.738-3.042-1.862-3.1-1.428-3.352-.993-2.049-.807-1.49-.931,5.648-3.352,1.366-2.607-4.966-3.725-1.738,5.214-4.469.662-3.719.88-8.585-1.33-.6-3.448,3.327-1.979,2.625-5.09,4.345-4.1,2.234-5.338,1.117-10.3,7.076-9.187,5.214.745-2.607,1.862-5.463,4.345-4.469,6.7-5.959-1.49-2.607-14.773-19.739-3.138,0-14.773,19.739-1.49,2.607,6.7,5.958,4.345,4.469,1.862,5.462.745,2.608-9.187-5.215-10.3-7.076-5.338-1.117-4.1-2.235-5.09-4.344-1.978-2.625-3.448-3.327-1.331.6.881,8.585.662,3.72,5.214,4.469-3.724,1.738-2.607,4.966-3.352-1.366-.931-5.648-.807,1.49-.993,2.049-1.427,3.352-1.862,3.1-1.738,3.042-2.048,1.986-.372,3.538-1.925-1.179-2.048-4.345-1.676-4.159-.559-2.483-.807-2.11-.248-5.028.187-4.1.062-2.793q-.062-.745-.124-1.49a27.665,27.665,0,0,0-3.249,2.855c-7.583,7.8-8.654,18.184-8.773,23.339l-.165,6.373.248,3.642.5,7.035,1.324,2.979,1.324,2.483,3.393,2.566,2.483,2.069,1.821,1.986,1.821,1.986,1.738,1.987,1.572,2.9-.083,3.642,1.407,1.738,1.407,1.738,1.655,1.573.911,1.738,1.407,1.324,1.159.331v-6.124l.083-11.835v-5.793l-.911-2.318-.5-2.9-.166-3.311-.5-1.49,1.987,3.807,2.069,4.138,1.738,1.656,1.655,1.324h.414l-.249-5.628-.248-4.221v-2.4l2.979,4.635,1.407,4.138,1.987,3.807,1.158,4.3,1.573,5.463,1.159,4.22,1.407,4.387,8.235-2.607,3.849-.993,1.614-.248.993,2.855.62,3.228.994,4.1.621,3.6.5,3.972.745,6.332.372,5.462-.248,4.842.124,5.71-.5,4.966-.5,5.587-.621,3.6-.372,3.477,6.828-4.594,2.98-1.49-.124-2.234.124-10.677v-2.607l1.481-1.169-2.258-33.116-4.516-14.049-11.29,2.425-7.253-14.177,23.059,9.244,10.787,41.393v0l10.788-41.4,23.059-9.244-7.253,14.177-11.29-2.425-4.516,14.049-2.258,33.116,1.48,1.169v2.607l.125,10.677-.125,2.234,2.979,1.49,6.828,4.593-.372-3.476-.621-3.6-.5-5.586-.5-4.966.124-5.711-.248-4.842.373-5.463.745-6.332.5-3.973.621-3.6.993-4.1.621-3.228.993-2.856,1.614.249,3.848.993,8.235,2.606,1.407-4.386,1.159-4.222,1.573-5.462,1.159-4.3,1.986-3.807,1.407-4.138,2.979-4.635v2.4l-.249,4.221-.249,5.628h.414l1.655-1.324,1.739-1.656,2.068-4.138,1.987-3.807-.5,1.49-.166,3.311-.5,2.9-.91,2.317v5.793l.082,11.835v6.124l1.159-.331,1.407-1.324.91-1.738,1.656-1.573,1.407-1.738,1.407-1.738-.083-3.642,1.572-2.9,1.739-1.986,1.82-1.986,1.821-1.987,2.482-2.068,3.394-2.566,1.324-2.483,1.324-2.979.5-7.035.249-3.641Z" transform="translate(-70.271 -127.514)" fill="none" stroke="#bb9557" stroke-miterlimit="10" stroke-width="4"/>
  </g>
</svg>
