<svg xmlns="http://www.w3.org/2000/svg" width="29.109" height="35.641" viewBox="0 0 29.109 35.641">
  <g id="그룹_49" data-name="그룹 49" transform="translate(3308.355 -3101.139)">
    <path id="패스_28" data-name="패스 28" d="M-3292.964,3102.53h-1.635a.115.115,0,0,0-.083.035l-1.208,1.23a.118.118,0,0,0-.033.083l0,.315a.116.116,0,0,0,.062.1l.183.1a.116.116,0,0,1,.047.046l.7,1.244a.118.118,0,0,0,.017.023l.1.108a.116.116,0,0,1,.031.08v1.049a.117.117,0,0,1-.026.074l-.559.681a.117.117,0,0,1-.2-.031l-.421-1.058a.117.117,0,0,0-.2-.028l-1.145,1.5a.116.116,0,0,0-.024.068l-.01.393a.117.117,0,0,1-.2.074l-1.865-2.109a.117.117,0,0,0-.2.077l-.01,1.772a.117.117,0,0,0,.064.1l.127.065a.116.116,0,0,1,.062.123l-.067.405a.117.117,0,0,1-.2.065l-.512-.495a.117.117,0,0,0-.2.089l.037.859a.127.127,0,0,0,0,.021l.091.4a.116.116,0,0,1-.131.141,1.028,1.028,0,0,1-.757-.423c-.241-.442.059-1.269.938-1.733a.119.119,0,0,0,.064-.1l.136-5.59a.117.117,0,0,0-.22-.058l-1.86,3.435a.118.118,0,0,1-.021.027l-1.224,1.212a.117.117,0,0,1-.188-.034l-1.5-3.27a.117.117,0,0,0-.223.048l-.011,3.592a.113.113,0,0,0,0,.033q.2.69.4,1.379a.116.116,0,0,1-.022.106q-.116.141-.228.288a12.025,12.025,0,0,0-2.268,7.61.118.118,0,0,0,.061.1l1.238.678a.117.117,0,0,1,.061.1l-.01.552a.117.117,0,0,0,.063.106q.172.089.345.191a7.907,7.907,0,0,1,2.471,2.322.117.117,0,0,1-.136.177l-1.942-.709a.117.117,0,0,0-.123.028l-1.359,1.381a.117.117,0,0,0,.022.181c.177.108.355.223.532.347a11.147,11.147,0,0,1,3.807,4.884.118.118,0,0,0,.071.066l.714.231a.117.117,0,0,1,.057.181l-.541.719a.116.116,0,0,0,.012.154l4.4,4.242a.117.117,0,0,0,.2-.094l-.178-2.076-.128-1.664a.117.117,0,0,1,.191-.1l1.016.842a.116.116,0,0,1,.026.15l-.612,1.026a.115.115,0,0,0-.012.093,10.021,10.021,0,0,0,.359,1.013,10.724,10.724,0,0,0,2.846,3.919.116.116,0,0,0,.158,0c.136-.132.272-.269.407-.411a14.6,14.6,0,0,0,2.9-4.51.116.116,0,0,0-.01-.108l-.6-.931a.117.117,0,0,1,.016-.147l.919-.909a.116.116,0,0,1,.2.081l.02,1.266a.11.11,0,0,1,0,.015l-.292,2.535a.117.117,0,0,0,.2.1l4.459-4.268a.116.116,0,0,0,.009-.159l-.612-.728a.116.116,0,0,1,.051-.185l.942-.327a.117.117,0,0,0,.072-.071,9.336,9.336,0,0,1,.457-1.084,10.307,10.307,0,0,1,3.717-4.041.117.117,0,0,0,.019-.181l-1.371-1.354a.116.116,0,0,0-.123-.026l-1.943.74a.116.116,0,0,1-.142-.168q.117-.195.254-.393a7.65,7.65,0,0,1,2.547-2.289l.012-.008h0a.118.118,0,0,0,.046-.088l.02-.4a.116.116,0,0,1,.048-.089l1.236-.88a.115.115,0,0,0,.049-.094,13.5,13.5,0,0,0-.125-2,14.222,14.222,0,0,0-2.261-5.9.118.118,0,0,1-.017-.084l.288-1.67a.079.079,0,0,0,0-.023l-.073-3.184a.117.117,0,0,0-.226-.037l-1.169,3.205a.116.116,0,0,1-.033.048l-.094.082a.117.117,0,0,1-.16-.005l-1.464-1.464a.127.127,0,0,1-.021-.028l-1.769-3.306a.117.117,0,0,0-.219.056l.033,3.626v.957l.048,1.064a.115.115,0,0,0,.031.073l.642.7a.112.112,0,0,1,.021.032l.239.549,0,.009.078.234a.118.118,0,0,1,.006.046l-.018.227a.116.116,0,0,1-.073.1l-.505.2a.117.117,0,0,1-.16-.1l-.1-1.337a.117.117,0,0,0-.205-.067l-.411.482a.117.117,0,0,1-.206-.074l-.006-.419a.116.116,0,0,1,.072-.109l.151-.063a.117.117,0,0,0,.072-.111l-.04-1.607a.117.117,0,0,0-.205-.074l-1.872,2.158a.117.117,0,0,1-.2-.063l-.095-.8a.117.117,0,0,0-.027-.061l-1.062-1.275a.117.117,0,0,0-.2.033l-.452,1.175a.117.117,0,0,1-.2.032l-.611-.745a.118.118,0,0,1-.027-.074v-1.108a.12.12,0,0,1,.01-.046l.1-.233.005-.012.776-1.37a.117.117,0,0,1,.067-.054l.175-.054a.116.116,0,0,0,.082-.108l.008-.255a.119.119,0,0,0-.038-.09l-1.2-1.094A.115.115,0,0,0-3292.964,3102.53Z" transform="translate(0 0)" fill="none" stroke="#063039" stroke-miterlimit="10" stroke-width="2"/>
    <path id="패스_29" data-name="패스 29" d="M-3190,3284.906a4.512,4.512,0,0,0-1.144-3.044,3.646,3.646,0,0,0-.424-.373c-.005.065-.011.13-.016.195l.008.364.024.534-.032.656-.105.275-.073.324-.218.542-.267.567-.251.154-.048-.462-.268-.259-.227-.4-.243-.4-.186-.437-.13-.267-.105-.194-.121.737-.437.178-.34-.648-.486-.227.68-.583.086-.485.115-1.12-.173-.078-.45.434-.258.343-.664.567-.534.292-.7.146-1.344.923-1.2.68.1-.34.243-.712.567-.583.874-.778-.194-.34-1.927-2.574h-.409l-1.927,2.575-.195.34.875.777.567.583.243.713.1.34-1.2-.68-1.344-.923-.7-.146-.534-.292-.664-.566-.258-.343-.45-.434-.173.078.115,1.12.086.485.68.583-.486.226-.34.648-.437-.178-.121-.737-.105.194-.129.267-.187.437-.242.405-.227.4-.267.259-.049.461-.251-.154-.267-.567-.219-.542-.073-.324-.105-.275-.033-.656.025-.534.008-.364c-.006-.065-.011-.129-.016-.194a3.563,3.563,0,0,0-.424.373,4.514,4.514,0,0,0-1.145,3.044l-.021.831.032.475.065.918.173.389.173.324.443.335.324.27.238.259.237.259.227.259.205.378-.011.475.184.227.184.227.216.205.119.227.184.173.151.043v-.8l.011-1.543v-.756l-.119-.3-.065-.378-.022-.432-.065-.194.259.5.27.54.227.216.216.173h.054l-.032-.734-.032-.551v-.313l.389.6.183.54.259.5.151.561.205.713.151.551.184.572,1.074-.34.5-.129.211-.032.129.372.081.421.13.534.081.47.065.518.1.826.048.712-.032.632.016.745-.065.648-.065.729-.081.469-.049.454.891-.6.389-.194-.016-.292.016-1.393v-.34l.193-.152-.294-4.32-.589-1.832-1.473.316-.946-1.849,3.008,1.206,1.407,5.4h0l1.407-5.4,3.008-1.206-.946,1.849-1.473-.316-.589,1.832-.294,4.32.193.152v.34l.016,1.393-.016.292.389.194.891.6-.049-.454-.081-.469-.064-.729-.065-.648.016-.745-.032-.632.049-.712.1-.826.065-.518.081-.47.129-.534.081-.421.13-.373.21.033.5.129,1.074.34.183-.572.151-.551.205-.713.151-.561.259-.5.183-.54.389-.6v.313l-.032.55-.033.734h.054l.216-.173.227-.216.27-.54.259-.5-.064.194-.022.432-.065.378-.118.3v.756l.01,1.544v.8l.151-.043.184-.173.119-.227.216-.205.184-.226.183-.227-.011-.475.205-.377.227-.259.238-.259.238-.259.323-.27.443-.335.173-.324.173-.389.064-.918.033-.475Z" transform="translate(-93.677 -169.987)" fill="none" stroke="#063039" stroke-miterlimit="10" stroke-width="2"/>
  </g>
</svg>
