<?xml version="1.0" standalone="no"?>
<!DOCTYPE svg PUBLIC "-//W3C//DTD SVG 20010904//EN"
 "http://www.w3.org/TR/2001/REC-SVG-20010904/DTD/svg10.dtd">
<svg version="1.0" xmlns="http://www.w3.org/2000/svg"
 width="601.000000pt" height="462.000000pt" viewBox="0 0 601.000000 462.000000"
 preserveAspectRatio="xMidYMid meet">

<g transform="translate(0.000000,462.000000) scale(0.100000,-0.100000)"
fill="#000000" stroke="none">
<path d="M975 4582 c6 -5 60 -47 120 -93 61 -45 184 -140 275 -209 91 -69 307
-234 480 -367 173 -132 462 -352 641 -489 341 -259 530 -404 1034 -788 165
-126 440 -336 610 -466 500 -382 577 -440 584 -440 4 0 67 118 141 263 73 144
165 325 205 402 40 77 161 316 270 530 109 215 239 471 290 570 295 576 379
744 374 749 -3 4 -800 5 -1770 4 l-1764 -3 145 -71 c80 -40 312 -154 515 -254
204 -100 462 -227 574 -281 l204 -99 473 0 c261 0 474 -3 474 -6 0 -3 -29 -61
-64 -127 -35 -67 -112 -218 -171 -334 -58 -117 -113 -213 -120 -213 -7 0 -145
66 -306 146 -162 81 -343 170 -404 199 -60 29 -344 169 -630 310 -286 142
-605 299 -710 350 -104 51 -392 193 -640 315 -247 122 -524 258 -614 302 -90
43 -178 86 -195 95 -17 8 -26 11 -21 5z"/>
<path d="M1614 3635 c10 -17 78 -117 150 -222 72 -106 190 -280 261 -385 72
-106 239 -354 373 -550 133 -197 242 -360 242 -363 0 -3 -236 -5 -525 -5 -289
0 -525 2 -525 4 0 3 59 120 131 261 99 194 129 261 123 275 -13 27 -438 649
-444 649 -3 1 -71 -131 -152 -292 -81 -160 -220 -434 -309 -607 -88 -173 -237
-464 -330 -647 -93 -182 -169 -334 -169 -337 0 -3 923 -7 2050 -8 1128 -2
2050 0 2050 3 0 3 -55 48 -122 99 -68 52 -301 229 -518 395 -954 728 -1271
970 -1461 1115 -112 85 -300 229 -419 319 -118 90 -262 200 -320 245 -80 62
-101 74 -86 51z"/>
<path d="M440 1206 c0 -2 52 -43 115 -91 l115 -88 -139 -271 c-76 -149 -173
-339 -215 -423 l-77 -152 -109 -87 c-61 -48 -110 -89 -110 -91 0 -2 312 -3
693 -3 l692 0 73 145 c39 79 72 147 72 150 0 3 -169 5 -375 5 l-376 0 231 455
231 455 -410 0 c-226 0 -411 -2 -411 -4z"/>
<path d="M1880 1205 c0 -3 52 -44 115 -91 l115 -86 -141 -277 c-78 -152 -195
-380 -260 -508 -66 -127 -119 -234 -119 -237 0 -3 111 -6 248 -6 l247 0 135
265 c74 145 138 265 141 265 4 0 51 -34 104 -75 l98 -75 308 0 c186 0 329 4
361 11 116 24 244 105 310 195 60 81 222 405 212 421 -5 8 -65 57 -134 109
l-125 94 -807 0 c-445 0 -808 -2 -808 -5z m1330 -307 c0 -15 -67 -137 -88
-162 -10 -10 -34 -27 -54 -37 -34 -17 -63 -19 -337 -19 l-300 0 46 88 c25 48
51 99 59 115 l15 27 329 0 c245 0 330 -3 330 -12z"/>
<path d="M3740 1205 c0 -3 52 -44 115 -91 l115 -86 -64 -122 c-34 -66 -132
-257 -216 -423 l-154 -303 -110 -87 -110 -88 689 -3 c379 -1 692 1 696 5 9 11
149 280 149 287 0 3 -169 6 -375 6 -206 0 -375 2 -375 5 0 3 17 38 39 78 89
167 411 807 411 816 0 8 -127 11 -405 11 -223 0 -405 -2 -405 -5z"/>
</g>
</svg>
