<?xml version="1.0" standalone="no"?>
<!DOCTYPE svg PUBLIC "-//W3C//DTD SVG 20010904//EN"
 "http://www.w3.org/TR/2001/REC-SVG-20010904/DTD/svg10.dtd">
<svg version="1.0" xmlns="http://www.w3.org/2000/svg"
 width="2525.000000pt" height="2525.000000pt" viewBox="0 0 2525.000000 2525.000000"
 preserveAspectRatio="xMidYMid meet">

<g transform="translate(0.000000,2525.000000) scale(0.100000,-0.100000)"
fill="#000000" stroke="none">
<path d="M12535 25226 c-50 -12 -70 -26 -151 -101 -40 -38 -81 -128 -667
-1465 -684 -1559 -849 -1930 -1102 -2482 l-168 -368 -2418 0 -2417 0 -41 -47
c-85 -99 -150 -271 -151 -396 0 -89 29 -198 80 -302 58 -118 88 -152 270 -300
256 -210 567 -531 769 -794 359 -470 655 -1064 852 -1709 287 -945 489 -2164
574 -3462 48 -737 64 -1581 40 -2127 l-5 -113 68 0 69 0 7 77 c9 111 7 700 -4
1143 -37 1455 -149 2625 -346 3609 -43 214 -202 864 -265 1078 -49 169 -138
420 -200 566 -183 428 -373 717 -732 1114 -304 336 -570 645 -659 766 -89 122
-144 233 -158 322 -29 184 34 318 181 384 44 20 60 21 2224 21 1199 0 2223 3
2276 6 l96 7 121 251 c175 363 1295 2699 1560 3251 123 259 242 507 264 552
46 97 83 126 158 127 74 1 112 -34 172 -163 174 -370 758 -1678 1363 -3051
185 -421 357 -810 381 -865 l44 -100 2253 0 c2556 0 2307 9 2411 -85 102 -94
140 -239 96 -370 -44 -132 -153 -299 -320 -493 -52 -61 -120 -140 -150 -176
-29 -36 -133 -154 -230 -261 -319 -354 -375 -423 -515 -635 -204 -306 -360
-645 -491 -1063 -67 -217 -246 -933 -298 -1197 -136 -683 -233 -1483 -290
-2375 -46 -714 -61 -1290 -57 -2192 l1 -248 68 0 67 0 0 738 c0 721 5 882 41
1452 61 987 194 1955 380 2770 239 1049 548 1761 1050 2420 199 261 466 551
708 768 207 186 258 240 301 317 136 242 132 475 -10 695 -23 36 -51 73 -62
82 -18 17 -152 18 -2432 20 l-2413 3 -149 370 c-715 1766 -1357 3285 -1595
3770 -67 137 -124 203 -215 248 -63 30 -144 35 -234 13z"/>
<path d="M12035 21140 l-600 -1570 -150 -1 c-82 -1 -891 -5 -1796 -8 l-1646
-6 969 -594 969 -593 157 26 c411 67 729 72 1062 15 566 -96 1088 -342 1544
-728 107 -90 328 -302 322 -308 -2 -3 -22 7 -43 20 -169 107 -477 228 -717
282 -201 45 -317 58 -526 58 -201 0 -323 -13 -496 -53 -91 -21 -294 -87 -307
-100 -10 -9 -1117 -3083 -1112 -3088 1 -2 666 428 1476 956 811 527 1480 962
1487 966 8 5 457 -288 1228 -799 668 -444 1217 -805 1219 -803 5 5 -164 463
-237 643 -104 255 -173 405 -289 635 -190 374 -363 642 -588 912 -807 966
-1843 1563 -3366 1938 -253 63 -606 133 -800 160 -82 12 -154 22 -160 24 -19
5 264 46 455 65 661 68 1437 47 2245 -60 907 -119 1685 -355 2293 -694 148
-82 371 -218 427 -260 l30 -23 1146 702 1145 701 -1793 6 c-1085 3 -1797 9
-1802 15 -5 5 -262 709 -571 1564 -309 855 -565 1558 -569 1562 -3 4 -276
-699 -606 -1562z"/>
<path d="M18170 18068 c-238 -498 -449 -1157 -559 -1743 -90 -484 -187 -1345
-250 -2230 -51 -712 -76 -1249 -106 -2322 l-6 -213 1063 1 c972 1 1059 2 1018
16 -780 268 -1281 484 -1345 582 -70 105 -122 361 -157 776 -17 203 -17 1311
0 1610 40 680 98 1321 168 1830 13 99 33 288 45 420 36 426 104 912 179 1276
16 78 28 144 26 146 -1 2 -36 -65 -76 -149z"/>
<path d="M6953 18165 c95 -468 157 -895 192 -1300 18 -207 32 -340 69 -630 52
-407 97 -875 132 -1385 14 -199 17 -406 18 -1105 1 -767 -1 -876 -17 -1005
-49 -405 -102 -571 -200 -638 -143 -99 -520 -257 -1087 -458 l-235 -83 1050 0
1050 -1 -2 152 c-24 1547 -140 3192 -304 4306 -102 697 -299 1370 -581 1992
-43 96 -82 177 -85 180 -3 3 -3 -8 0 -25z"/>
<path d="M12245 15353 c-225 -145 -549 -353 -720 -462 -809 -518 -1005 -644
-1199 -768 l-209 -133 -157 -302 c-87 -167 -292 -562 -456 -878 l-299 -575 3
-342 4 -343 752 1 c826 1 785 -4 515 59 l-136 31 -339 285 c-186 157 -343 289
-347 294 -5 4 73 160 174 346 101 187 280 518 399 737 l215 399 1134 689 c990
601 1137 687 1153 676 10 -6 229 -174 486 -372 l469 -360 247 -494 247 -494
-74 -111 c-41 -61 -286 -426 -546 -811 l-471 -700 -68 -22 c-37 -12 -168 -50
-292 -85 l-225 -63 505 -3 c395 -2 507 1 516 10 6 7 215 333 463 723 358 562
456 711 474 712 12 2 84 -7 159 -20 l138 -22 470 -463 470 -464 0 -239 0 -239
135 0 135 0 0 339 0 339 -134 293 c-73 162 -231 508 -351 769 -119 261 -237
520 -262 575 l-45 100 -131 87 c-172 112 -905 593 -1117 731 -91 60 -304 200
-475 312 -549 360 -778 510 -789 516 -6 3 -195 -113 -421 -258z m2619 -1619
l108 -69 48 -110 c99 -230 200 -464 248 -572 28 -62 48 -113 45 -113 -2 0
-114 104 -248 231 l-243 231 -189 325 c-103 179 -190 330 -191 335 -4 8 171
-99 422 -258z"/>
<path d="M3047 10882 l-127 -127 0 -305 0 -305 108 -108 107 -107 371 0 371 0
21 -23 c20 -21 22 -34 22 -152 0 -126 -1 -129 -27 -157 l-27 -28 -206 0 -206
0 -27 28 c-24 25 -27 36 -27 100 l0 72 -245 0 -245 0 0 -153 0 -152 123 -122
122 -123 145 -2 145 -3 3 -93 3 -92 162 2 162 3 48 93 48 92 142 0 142 0 128
128 127 127 0 310 0 310 -108 108 -107 107 -377 0 -377 0 -15 22 c-13 17 -16
50 -16 147 0 122 1 126 27 153 l27 28 200 0 200 0 28 -27 c26 -25 28 -33 28
-100 l0 -73 245 0 245 0 0 148 0 147 -128 128 -127 127 -490 0 -490 0 -128
-128z"/>
<path d="M5036 10993 c-3 -10 -104 -398 -226 -863 -122 -465 -225 -860 -230
-877 l-8 -33 232 0 232 0 40 173 39 172 272 3 273 2 5 -22 c3 -13 19 -81 35
-153 16 -71 32 -140 35 -152 l5 -23 256 0 c201 0 255 3 251 13 -6 16 -467
1764 -467 1771 0 3 -166 6 -369 6 -343 0 -370 -1 -375 -17z m452 -674 l88
-384 -184 -3 c-102 -1 -186 -1 -187 0 -3 3 172 755 181 778 4 8 8 10 10 4 3
-6 44 -183 92 -395z"/>
<path d="M6470 10115 l0 -895 210 0 210 0 2 704 3 704 180 -657 c98 -361 185
-677 193 -703 l14 -48 273 0 274 0 20 68 c11 37 99 351 196 697 97 347 181
634 186 640 5 5 9 -275 9 -698 l0 -707 230 0 230 0 0 895 0 895 -373 0 -372 0
-174 -637 c-96 -351 -178 -653 -183 -671 -5 -19 -11 -32 -13 -30 -3 3 -284
1029 -355 1296 l-11 42 -374 0 -375 0 0 -895z"/>
<path d="M9060 10115 l0 -895 245 0 245 0 0 290 0 290 378 0 377 0 138 138
137 137 0 330 0 330 -138 138 -137 137 -623 0 -622 0 0 -895z m992 518 l38
-37 0 -190 0 -190 -42 -43 -42 -43 -228 0 -228 0 0 270 0 270 232 0 232 0 38
-37z"/>
<path d="M11076 10973 c-3 -21 -6 -109 -6 -195 l0 -158 245 0 245 0 0 173 c0
94 -3 182 -6 195 l-6 22 -233 0 -232 0 -7 -37z"/>
<path d="M12030 11005 c0 -2 126 -288 280 -636 l280 -631 0 -259 0 -259 245 0
245 0 0 265 0 265 266 598 c147 328 273 612 281 630 l13 32 -238 0 -239 0
-153 -390 c-85 -215 -157 -387 -161 -383 -4 5 -68 172 -142 373 -75 201 -138
373 -142 383 -7 16 -29 17 -271 17 -145 0 -264 -2 -264 -5z"/>
<path d="M13922 10877 l-132 -132 0 -630 0 -630 132 -132 133 -133 500 0 500
0 133 133 132 132 0 632 0 631 -137 131 -136 131 -496 0 -496 0 -133 -133z
m865 -269 l43 -42 0 -450 0 -450 -47 -48 -47 -48 -180 0 -180 0 -48 47 -48 47
0 450 0 450 42 43 42 43 190 0 190 0 43 -42z"/>
<path d="M15660 10115 l0 -895 215 0 215 0 2 533 3 532 281 -530 282 -530 256
-3 256 -2 0 895 0 895 -220 0 -220 0 -2 -525 -3 -524 -285 524 -285 525 -247
0 -248 0 0 -895z"/>
<path d="M17520 10115 l0 -895 575 0 575 0 0 190 0 190 -327 2 -328 3 -3 703
-2 702 -245 0 -245 0 0 -895z"/>
<path d="M18900 10252 l0 -757 138 -138 137 -137 480 0 480 0 138 138 137 137
0 758 0 757 -250 0 -250 0 0 -667 0 -667 -42 -43 -42 -43 -171 0 -171 0 -42
43 -42 43 0 667 0 667 -250 0 -250 0 0 -758z"/>
<path d="M20750 10115 l0 -895 245 0 245 0 0 158 0 158 115 180 c63 98 118
180 123 181 4 1 75 -149 158 -335 l151 -337 272 -3 c218 -2 272 0 268 10 -3 7
-116 246 -251 531 l-245 518 233 352 c127 194 235 358 240 365 6 9 -50 12
-266 12 l-273 0 -260 -432 -260 -433 -3 433 -2 432 -245 0 -245 0 0 -895z"/>
<path d="M11070 9843 c0 -302 3 -565 6 -585 l7 -38 232 0 233 0 6 23 c3 12 6
275 6 585 l0 562 -245 0 -245 0 0 -547z"/>
<path d="M6840 8015 l0 -435 358 2 357 3 3 88 3 87 -246 0 -245 0 0 345 0 345
-115 0 -115 0 0 -435z"/>
<path d="M10690 8365 l0 -85 115 0 115 0 0 85 0 85 -115 0 -115 0 0 -85z"/>
<path d="M14167 8372 l-77 -77 0 -275 0 -275 83 -83 82 -82 320 0 320 0 78 78
78 78 -3 164 -3 165 -267 3 -268 2 0 -80 0 -80 150 0 150 0 0 -63 c0 -53 -4
-67 -23 -85 -22 -21 -32 -22 -208 -22 l-185 0 -32 33 -32 33 0 214 0 214 27
28 27 28 196 0 c219 0 230 -3 230 -68 l0 -32 115 0 115 0 0 63 0 63 -68 67
-68 67 -329 0 -330 0 -78 -78z"/>
<path d="M18210 8365 l0 -85 115 0 115 0 0 85 0 85 -115 0 -115 0 0 -85z"/>
<path d="M10692 7878 l3 -293 110 0 110 0 3 293 2 292 -115 0 -115 0 2 -292z"/>
<path d="M18212 7878 l3 -293 110 0 110 0 3 293 2 292 -115 0 -115 0 2 -292z"/>
<path d="M5940 7025 c254 -68 455 -148 785 -309 235 -116 306 -165 339 -235
21 -46 21 -52 23 -801 2 -533 6 -769 14 -804 17 -71 65 -114 201 -177 358
-168 663 -346 1168 -684 557 -372 1388 -989 1818 -1348 790 -660 1636 -1604
2250 -2510 l101 -149 27 44 c48 77 234 339 367 518 559 752 1219 1466 1872
2027 235 201 956 766 1388 1087 654 486 1077 758 1494 963 250 123 282 147
304 225 9 31 12 249 14 793 1 675 3 755 18 802 32 97 118 153 491 318 247 109
506 197 736 250 l105 24 -1072 0 -1073 1 0 -472 c0 -260 -5 -513 -10 -563 -6
-49 -13 -126 -16 -170 -9 -113 -27 -171 -83 -256 -48 -73 -221 -250 -331 -339
-30 -25 -57 -47 -60 -50 -47 -51 -530 -417 -1150 -871 -643 -472 -1091 -814
-1312 -1002 -29 -25 -118 -101 -198 -168 -80 -68 -147 -126 -150 -129 -3 -3
-68 -59 -145 -125 -148 -125 -164 -139 -345 -305 -195 -178 -296 -276 -535
-515 -267 -267 -325 -318 -352 -309 -10 4 -157 145 -328 313 -423 418 -725
695 -1190 1092 -389 331 -742 606 -1402 1090 -101 74 -159 116 -267 195 -218
159 -685 510 -822 620 -374 297 -553 481 -598 616 -35 103 -60 580 -53 1031
l4 317 -1076 -1 -1076 0 125 -34z"/>
<path d="M8035 6843 c-12 -343 8 -858 40 -1051 11 -64 23 -95 51 -138 127
-192 436 -446 1399 -1153 974 -716 1130 -835 1599 -1232 215 -182 514 -445
746 -657 63 -58 261 -251 439 -429 178 -178 327 -323 331 -321 4 2 56 54 115
116 102 109 312 315 500 493 159 151 601 552 720 654 39 33 72 62 75 65 15 17
325 275 405 337 33 26 62 50 65 53 3 3 57 46 120 95 63 49 144 112 180 140 36
29 128 99 204 156 204 152 237 176 277 203 20 13 42 31 50 39 8 7 32 26 54 41
22 14 67 47 100 71 55 42 130 97 208 153 18 13 46 34 64 48 35 27 73 56 148
109 28 19 77 55 110 80 33 25 76 56 96 69 20 13 42 30 50 38 8 8 86 67 174
133 190 142 251 190 450 355 120 100 309 291 350 354 38 58 51 118 66 306 13
145 24 1005 15 1056 -7 33 -9 34 -52 34 l-45 0 8 -92 c4 -51 8 -237 7 -413 0
-336 -13 -505 -55 -705 -24 -119 -68 -187 -207 -321 -199 -193 -431 -371
-1257 -964 -852 -612 -1143 -836 -1665 -1284 -480 -412 -1085 -964 -1283
-1173 l-49 -51 -156 155 c-299 296 -698 658 -1187 1078 -479 411 -833 685
-1585 1225 -926 665 -1159 844 -1356 1042 -148 150 -171 202 -211 488 -15 109
-18 200 -18 573 l0 442 -41 0 -42 0 -7 -217z"/>
<path d="M9230 6867 l0 -164 166 -434 c91 -239 209 -547 262 -686 l97 -252
1444 -1104 1445 -1105 130 100 c72 55 670 512 1328 1016 l1197 915 65 156 c35
86 186 448 335 806 l272 649 -3 131 -3 130 -131 3 -132 3 -4 -88 -5 -88 -187
-405 c-103 -223 -255 -553 -339 -735 -83 -181 -156 -336 -161 -344 -12 -16
-140 -114 -971 -746 -324 -247 -630 -479 -679 -517 -49 -37 -94 -68 -100 -68
-6 0 -133 83 -281 185 l-270 185 -527 -1 c-289 -1 -532 2 -540 7 -7 4 -121 82
-253 173 -132 90 -454 311 -715 490 -261 178 -506 346 -544 373 l-70 48 -77
192 c-42 106 -159 400 -260 653 l-184 460 -5 110 -5 110 -147 3 -148 3 0 -164z
m3482 -2785 c35 -21 125 -73 201 -116 75 -43 137 -80 137 -81 0 -4 -375 -275
-397 -288 -9 -6 -558 428 -638 504 -19 19 -13 19 308 19 l327 0 62 -38z"/>
<path d="M12465 6405 c-33 -7 -87 -24 -120 -36 -53 -21 -57 -24 -31 -27 15 -2
65 7 110 19 63 17 107 22 201 22 94 0 138 -5 201 -22 45 -12 95 -21 110 -19
26 3 22 6 -31 27 -131 50 -309 65 -440 36z"/>
<path d="M11690 6341 c0 -5 7 -14 15 -21 23 -19 22 -290 -1 -325 l-16 -25 109
0 c103 0 111 1 133 25 l23 24 -84 3 -84 3 -3 163 -2 162 -45 0 c-25 0 -45 -4
-45 -9z"/>
<path d="M12253 6327 c-13 -5 -23 -18 -23 -29 0 -23 8 -23 43 1 22 14 25 20
15 28 -9 7 -20 7 -35 0z"/>
<path d="M12709 6306 c-92 -33 -134 -93 -127 -181 10 -118 116 -178 283 -160
l65 7 0 89 0 89 -45 0 c-47 0 -56 -9 -30 -30 21 -17 20 -96 -1 -104 -27 -10
-83 -7 -118 8 -97 40 -111 172 -24 226 26 17 45 20 93 17 33 -2 68 -7 78 -12
14 -6 17 -2 17 23 0 18 -6 32 -16 36 -27 10 -138 6 -175 -8z"/>
<path d="M11963 6292 c14 -15 17 -42 17 -152 0 -110 -3 -137 -17 -152 -16 -17
-12 -18 110 -18 115 0 127 2 137 19 5 11 10 22 10 25 0 3 -38 6 -85 6 l-85 0
0 55 0 55 45 0 c41 0 45 2 45 25 0 23 -4 25 -45 25 l-45 0 0 40 0 40 63 0 c36
0 68 -5 75 -12 9 -9 12 -4 12 25 l0 37 -127 0 c-122 0 -126 -1 -110 -18z"/>
<path d="M12359 6297 c9 -12 -1 -44 -54 -165 -36 -82 -65 -153 -65 -156 0 -3
13 -6 29 -6 26 0 31 6 54 63 l25 62 62 0 62 0 25 -62 25 -63 51 0 50 0 -20 23
c-12 12 -50 87 -85 167 l-64 145 -53 3 c-47 3 -53 1 -42 -11z m71 -104 c8 -21
16 -41 18 -45 2 -5 -15 -8 -38 -8 -36 0 -41 2 -35 18 4 9 12 29 17 45 13 36
21 34 38 -10z"/>
<path d="M12948 6298 c5 -7 12 -67 14 -133 5 -132 13 -156 61 -185 38 -24 85
-25 132 -6 19 8 35 11 35 5 0 -5 20 -9 45 -9 42 0 45 2 35 19 -5 11 -10 79
-10 151 0 72 5 140 10 151 10 17 7 19 -35 19 l-45 0 0 -125 c0 -120 -1 -127
-25 -150 -29 -30 -74 -32 -106 -6 -23 18 -24 27 -27 150 l-4 131 -45 0 c-35 0
-43 -3 -35 -12z"/>
<path d="M13334 6288 c23 -33 23 -258 0 -293 l-16 -25 120 0 c117 0 120 1 136
25 l16 25 -85 0 -85 0 0 55 0 55 45 0 c41 0 45 2 45 25 0 23 -4 25 -45 25
l-45 0 0 40 0 40 63 0 c36 0 68 -5 75 -12 9 -9 12 -4 12 25 l0 37 -126 0 -125
0 15 -22z"/>
<path d="M11366 6292 c46 -32 58 -123 24 -179 -38 -62 -122 -86 -193 -55 -54
24 -57 21 -57 -72 0 -126 53 -254 146 -355 31 -34 60 -61 65 -61 21 0 6 39
-27 71 -78 73 -140 204 -144 299 -3 83 -7 79 59 73 48 -5 68 -1 106 17 78 38
123 134 97 209 l-11 31 130 0 c108 0 129 2 129 15 0 13 -25 15 -167 15 -93 0
-163 -4 -157 -8z"/>
<path d="M11820 6285 c0 -12 13 -15 61 -15 54 0 60 2 49 15 -8 10 -30 15 -61
15 -37 0 -49 -4 -49 -15z"/>
<path d="M13070 6285 c0 -11 12 -15 45 -15 33 0 45 4 45 15 0 11 -12 15 -45
15 -33 0 -45 -4 -45 -15z"/>
<path d="M13600 6285 c0 -12 19 -15 109 -15 l110 0 -11 -31 c-26 -75 19 -171
97 -209 38 -18 58 -22 106 -17 66 6 62 10 59 -73 -2 -61 -34 -151 -76 -217
-50 -78 -43 -118 8 -50 66 85 108 209 108 313 0 93 -3 96 -57 72 -71 -31 -155
-7 -193 55 -34 56 -22 147 24 179 6 4 -55 8 -136 8 -125 0 -148 -2 -148 -15z"/>
<path d="M13564 6136 c-12 -31 0 -51 30 -51 36 0 56 26 37 49 -17 20 -60 21
-67 2z m53 -12 c8 -21 -13 -42 -28 -27 -13 13 -5 43 11 43 6 0 13 -7 17 -16z"/>
<path d="M13645 6115 c0 -21 5 -35 13 -35 6 0 12 6 12 14 0 8 6 17 13 19 10 4
10 6 0 6 -7 1 -13 6 -13 12 0 6 7 8 16 5 8 -3 12 -2 9 4 -3 6 -16 10 -28 10
-18 0 -22 -6 -22 -35z"/>
<path d="M13685 5981 c-85 -22 -125 -67 -125 -140 0 -60 36 -96 156 -152 119
-55 147 -84 123 -128 -33 -59 -143 -64 -244 -11 -30 16 -55 26 -55 22 0 -4 6
-29 13 -57 l13 -50 60 -13 c128 -27 244 6 289 82 30 51 32 90 5 133 -15 25
-46 45 -135 88 -117 56 -146 82 -131 120 9 24 75 48 118 42 21 -3 56 -14 78
-26 l40 -21 0 49 c0 36 -4 51 -16 55 -28 11 -157 16 -189 7z"/>
<path d="M11350 5971 c0 -5 7 -14 15 -21 13 -10 15 -50 15 -238 0 -218 -1
-227 -22 -249 l-21 -23 135 0 136 0 26 34 c14 19 26 37 26 40 0 3 -43 6 -95 6
l-95 0 0 230 0 230 -60 0 c-33 0 -60 -4 -60 -9z"/>
<path d="M13943 5917 c0 -8 6 -14 12 -14 6 0 12 6 12 14 0 7 -6 13 -12 13 -6
0 -12 -6 -12 -13z"/>
<path d="M12114 5894 c-162 -58 -182 -264 -34 -348 52 -29 61 -31 160 -31 58
0 113 3 123 7 14 6 17 21 17 103 l0 95 -57 0 c-54 0 -55 -1 -40 -18 12 -13 17
-36 17 -74 l0 -55 -38 -7 c-81 -13 -161 29 -187 99 -30 77 -4 143 69 176 48
22 106 24 159 5 l38 -14 -3 36 -3 37 -90 2 c-58 1 -104 -3 -131 -13z"/>
<path d="M11704 5875 c23 -35 24 -306 1 -325 -8 -7 -15 -16 -15 -21 0 -5 77
-9 172 -9 l172 0 -29 30 c-28 29 -32 30 -117 30 l-88 0 0 60 0 60 45 0 c43 0
45 1 45 30 0 29 -2 30 -45 30 l-45 0 0 45 0 45 62 0 c43 0 67 -5 80 -17 17
-15 18 -14 18 25 l0 42 -136 0 -136 0 16 -25z"/>
<path d="M12434 5875 c23 -35 24 -306 1 -325 -8 -7 -15 -16 -15 -21 0 -5 57
-9 128 -8 l127 0 23 30 24 29 -96 0 -96 0 0 59 0 60 48 3 c43 3 47 5 47 28 0
23 -4 25 -47 28 l-48 3 0 45 0 44 62 0 c43 0 67 -5 80 -17 17 -15 18 -14 18
25 l0 42 -136 0 -136 0 16 -25z"/>
<path d="M12750 5881 c5 -11 10 -85 10 -169 0 -121 -3 -152 -15 -162 -27 -22
-16 -30 40 -30 l55 0 0 137 0 138 135 -135 135 -135 0 164 c0 155 1 166 22
188 l21 23 -56 0 -57 0 0 -102 0 -103 -103 103 c-101 101 -103 102 -150 102
-44 0 -47 -1 -37 -19z"/>
<path d="M13184 5875 c23 -35 24 -306 1 -325 -33 -27 -15 -33 93 -28 69 3 121
11 147 22 154 66 166 264 21 332 -44 21 -66 24 -165 24 l-113 0 16 -25z m185
-31 c48 -10 89 -56 97 -109 13 -88 -51 -155 -148 -155 l-48 0 0 135 0 135 34
0 c18 0 48 -3 65 -6z"/>
<path d="M11670 5465 c-11 -13 35 -15 406 -15 386 0 422 -2 460 -19 22 -10 52
-33 65 -50 l25 -31 23 31 c13 17 42 39 64 50 39 17 72 19 434 19 345 0 392 2
387 15 -5 13 -59 15 -400 15 -421 0 -438 -2 -490 -51 -20 -18 -22 -19 -35 -3
-8 10 -32 25 -54 35 -37 17 -75 19 -456 19 -358 0 -418 -2 -429 -15z"/>
</g>
</svg>
